<?xml version="1.0" encoding="UTF-8" standalone="no"?>
<!-- Created with Inkscape (http://www.inkscape.org/) -->

<svg
   xmlns:dc="http://purl.org/dc/elements/1.1/"
   xmlns:cc="http://creativecommons.org/ns#"
   xmlns:rdf="http://www.w3.org/1999/02/22-rdf-syntax-ns#"
   xmlns:svg="http://www.w3.org/2000/svg"
   xmlns="http://www.w3.org/2000/svg"
   xmlns:xlink="http://www.w3.org/1999/xlink"
   xmlns:sodipodi="http://sodipodi.sourceforge.net/DTD/sodipodi-0.dtd"
   xmlns:inkscape="http://www.inkscape.org/namespaces/inkscape"
   version="1.0"
   width="96"
   height="96"
   id="svg2408"
   style="display:inline"
   inkscape:version="0.48.4 r9939"
   sodipodi:docname="ltdb.svg">
  <sodipodi:namedview
     pagecolor="#ffffff"
     bordercolor="#666666"
     borderopacity="1"
     objecttolerance="10"
     gridtolerance="10"
     guidetolerance="10"
     inkscape:pageopacity="0"
     inkscape:pageshadow="2"
     inkscape:window-width="1920"
     inkscape:window-height="1030"
     id="namedview92"
     showgrid="false"
     inkscape:zoom="2.4583333"
     inkscape:cx="13.232458"
     inkscape:cy="85.008727"
     inkscape:window-x="0"
     inkscape:window-y="0"
     inkscape:window-maximized="1"
     inkscape:current-layer="svg2408" />
  <defs
     id="defs2410">
    <linearGradient
       id="linearGradient3858">
      <stop
         id="stop3860"
         style="stop-color:#225500;stop-opacity:1"
         offset="0" />
      <stop
         id="stop3862"
         style="stop-color:#225500;stop-opacity:0"
         offset="1" />
    </linearGradient>
    <linearGradient
       id="linearGradient3833">
      <stop
         id="stop3835"
         style="stop-color:#ffffff;stop-opacity:1"
         offset="0" />
      <stop
         id="stop3837"
         style="stop-color:#ffffff;stop-opacity:0"
         offset="1" />
    </linearGradient>
    <linearGradient
       id="linearGradient3788">
      <stop
         id="stop3790"
         style="stop-color:#d9d9d9;stop-opacity:1"
         offset="0" />
      <stop
         id="stop3792"
         style="stop-color:#c6c6c6;stop-opacity:1"
         offset="0.25015625" />
      <stop
         id="stop3796"
         style="stop-color:#696969;stop-opacity:1"
         offset="1" />
    </linearGradient>
    <linearGradient
       id="linearGradient3702">
      <stop
         id="stop3705"
         style="stop-color:#88ff02;stop-opacity:1"
         offset="0" />
      <stop
         id="stop3707"
         style="stop-color:#1f8000;stop-opacity:1"
         offset="1" />
    </linearGradient>
    <linearGradient
       id="linearGradient3675">
      <stop
         id="stop3677"
         style="stop-color:#666666;stop-opacity:1"
         offset="0" />
      <stop
         id="stop3683"
         style="stop-color:#e6e6e6;stop-opacity:1"
         offset="0.25015625" />
      <stop
         id="stop3685"
         style="stop-color:#808080;stop-opacity:1"
         offset="0.51292795" />
      <stop
         id="stop3679"
         style="stop-color:#474747;stop-opacity:1"
         offset="1" />
    </linearGradient>
    <linearGradient
       id="linearGradient3614">
      <stop
         id="stop3616"
         style="stop-color:#ffffff;stop-opacity:0.48062015"
         offset="0" />
      <stop
         id="stop3618"
         style="stop-color:#ffffff;stop-opacity:0.12403101"
         offset="1" />
    </linearGradient>
    <linearGradient
       x1="45.447727"
       y1="92.539597"
       x2="45.447727"
       y2="7.0165396"
       id="ButtonShadow"
       gradientUnits="userSpaceOnUse"
       gradientTransform="scale(1.0058652,0.994169)">
      <stop
         id="stop3750"
         style="stop-color:#000000;stop-opacity:1"
         offset="0" />
      <stop
         id="stop3752"
         style="stop-color:#000000;stop-opacity:0.58823532"
         offset="1" />
    </linearGradient>
    <linearGradient
       id="linearGradient3737">
      <stop
         id="stop3739"
         style="stop-color:#ffffff;stop-opacity:1"
         offset="0" />
      <stop
         id="stop3741"
         style="stop-color:#ffffff;stop-opacity:0"
         offset="1" />
    </linearGradient>
    <linearGradient
       x1="36.357143"
       y1="6"
       x2="36.357143"
       y2="63.893143"
       id="linearGradient3188"
       xlink:href="#linearGradient3737"
       gradientUnits="userSpaceOnUse" />
    <radialGradient
       cx="48"
       cy="90.171875"
       r="42"
       fx="48"
       fy="90.171875"
       id="radialGradient3619"
       xlink:href="#linearGradient3737"
       gradientUnits="userSpaceOnUse"
       gradientTransform="matrix(1.1573129,0,0,0.99590774,-7.5510206,0.19713193)" />
    <linearGradient
       x1="-16"
       y1="8"
       x2="-16"
       y2="88"
       id="linearGradient3761"
       xlink:href="#linearGradient3675"
       gradientUnits="userSpaceOnUse"
       gradientTransform="matrix(0,-1,1,0,0,0)" />
    <linearGradient
       x1="-16"
       y1="8"
       x2="-16"
       y2="88"
       id="linearGradient3767"
       xlink:href="#linearGradient3675"
       gradientUnits="userSpaceOnUse"
       gradientTransform="matrix(0,1,1,0,0,96)" />
    <linearGradient
       x1="32"
       y1="6.0500002"
       x2="64"
       y2="6.0500002"
       id="linearGradient3777"
       xlink:href="#linearGradient3788"
       gradientUnits="userSpaceOnUse" />
    <linearGradient
       x1="26"
       y1="6"
       x2="26"
       y2="120.01754"
       id="linearGradient3839"
       xlink:href="#linearGradient3833"
       gradientUnits="userSpaceOnUse"
       gradientTransform="translate(-2,0)" />
    <linearGradient
       x1="26"
       y1="6"
       x2="26"
       y2="72.022263"
       id="linearGradient3843"
       xlink:href="#linearGradient3833"
       gradientUnits="userSpaceOnUse"
       gradientTransform="matrix(0.57142857,0,0,1,50.857143,0)" />
    <linearGradient
       x1="26"
       y1="6"
       x2="26"
       y2="72.022263"
       id="linearGradient3873"
       xlink:href="#linearGradient3833"
       gradientUnits="userSpaceOnUse"
       gradientTransform="matrix(0.23809524,0,0,1,47.190476,-96.000008)" />
    <linearGradient
       x1="6"
       y1="63"
       x2="32.019222"
       y2="63"
       id="linearGradient3897"
       xlink:href="#linearGradient3858"
       gradientUnits="userSpaceOnUse"
       gradientTransform="matrix(-1,0,0,1,96,0)" />
    <radialGradient
       cx="48"
       cy="90.199997"
       r="42"
       fx="48"
       fy="90.199997"
       id="radialGradient3901"
       xlink:href="#linearGradient3702"
       gradientUnits="userSpaceOnUse"
       gradientTransform="matrix(1.3333333,5.3333334e-8,-3.8095238e-8,0.95238092,-15.999997,-5.9047602)" />
    <linearGradient
       x1="-90"
       y1="48"
       x2="-6"
       y2="48"
       id="linearGradient3925"
       xlink:href="#linearGradient3614"
       gradientUnits="userSpaceOnUse"
       gradientTransform="matrix(1,0,0,-1,96,96)" />
    <linearGradient
       x1="45.447727"
       y1="92.539597"
       x2="45.447727"
       y2="7.0165396"
       id="linearGradient3938"
       xlink:href="#ButtonShadow"
       gradientUnits="userSpaceOnUse"
       gradientTransform="scale(1.0058652,0.994169)" />
    <filter
       color-interpolation-filters="sRGB"
       id="filter3941">
      <feGaussianBlur
         id="feGaussianBlur3943"
         stdDeviation="1.75" />
    </filter>
    <clipPath
       id="clipPath3950">
      <path
         d="M 0,0 0,16 0,80 0,96 96,96 96,80 96,16 96,0 0,0 z m 12.21875,6.28125 71.5625,0 c 3.302546,0 5.9375,2.634954 5.9375,5.9375 L 89.71875,16 88,16 l 0,64 1.71875,0 0,3.78125 c 0,3.302546 -2.634954,5.9375 -5.9375,5.9375 l -71.5625,0 c -3.3025464,0 -5.9375,-2.634954 -5.9375,-5.9375 L 6.28125,80 8,80 8,16 l -1.71875,0 0,-3.78125 c 0,-3.302546 2.6349536,-5.9375 5.9375,-5.9375 z"
         inkscape:connector-curvature="0"
         id="path3952"
         style="fill:#ff00ff;fill-opacity:1;stroke:none" />
    </clipPath>
    <linearGradient
       x1="64"
       y1="47"
       x2="82.835136"
       y2="47"
       id="linearGradient3976"
       xlink:href="#linearGradient3833"
       gradientUnits="userSpaceOnUse"
       gradientTransform="translate(4,0)" />
    <linearGradient
       x1="40"
       y1="91"
       x2="40"
       y2="3.3073549"
       id="linearGradient3794"
       xlink:href="#ButtonShadow"
       gradientUnits="userSpaceOnUse" />
    <linearGradient
       x1="45.447727"
       y1="92.539597"
       x2="45.447727"
       y2="7.0165396"
       id="linearGradient3803"
       xlink:href="#ButtonShadow"
       gradientUnits="userSpaceOnUse"
       gradientTransform="scale(1.0058652,0.994169)" />
    <linearGradient
       x1="45.447727"
       y1="92.539597"
       x2="45.447727"
       y2="7.0165396"
       id="linearGradient3817"
       xlink:href="#ButtonShadow"
       gradientUnits="userSpaceOnUse"
       gradientTransform="scale(1.0058652,0.994169)" />
    <linearGradient
       x1="45.447727"
       y1="92.539597"
       x2="45.447727"
       y2="7.0165396"
       id="linearGradient3825"
       xlink:href="#ButtonShadow"
       gradientUnits="userSpaceOnUse"
       gradientTransform="scale(1.0058652,0.994169)" />
    <linearGradient
       x1="45.447727"
       y1="92.539597"
       x2="45.447727"
       y2="7.0165396"
       id="linearGradient3837"
       xlink:href="#ButtonShadow"
       gradientUnits="userSpaceOnUse"
       gradientTransform="scale(1.0058652,0.994169)" />
    <linearGradient
       inkscape:collect="always"
       xlink:href="#linearGradient3833"
       id="linearGradient3073"
       gradientUnits="userSpaceOnUse"
       gradientTransform="matrix(0.23809524,0,0,1,47.190476,-96.000008)"
       x1="26"
       y1="6"
       x2="26"
       y2="72.022263" />
    <linearGradient
       inkscape:collect="always"
       xlink:href="#linearGradient3833"
       id="linearGradient3079"
       gradientUnits="userSpaceOnUse"
       gradientTransform="matrix(0.57142857,0,0,1,50.857143,0)"
       x1="26"
       y1="6"
       x2="26"
       y2="72.022263" />
    <linearGradient
       inkscape:collect="always"
       xlink:href="#linearGradient3833"
       id="linearGradient3082"
       gradientUnits="userSpaceOnUse"
       gradientTransform="translate(-0.37288136,0.61016949)"
       x1="26"
       y1="6"
       x2="26"
       y2="120.01754" />
    <linearGradient
       inkscape:collect="always"
       xlink:href="#linearGradient3675"
       id="linearGradient3087"
       gradientUnits="userSpaceOnUse"
       gradientTransform="matrix(0,1,1,0,129.76271,120)"
       x1="-16"
       y1="8"
       x2="-16"
       y2="88" />
    <linearGradient
       inkscape:collect="always"
       xlink:href="#linearGradient3675"
       id="linearGradient3090"
       gradientUnits="userSpaceOnUse"
       gradientTransform="matrix(0,-1,1,0,80.338983,-24.61017)"
       x1="-16"
       y1="8"
       x2="-16"
       y2="88" />
    <linearGradient
       inkscape:collect="always"
       xlink:href="#linearGradient3614"
       id="linearGradient3093"
       gradientUnits="userSpaceOnUse"
       gradientTransform="matrix(1,0,0,-1,439.72881,11.389831)"
       x1="-90"
       y1="48"
       x2="-6"
       y2="48" />
    <linearGradient
       inkscape:collect="always"
       xlink:href="#linearGradient3788"
       id="linearGradient3096"
       gradientUnits="userSpaceOnUse"
       x1="32"
       y1="6.0500002"
       x2="64"
       y2="6.0500002"
       gradientTransform="translate(-5.7966102,-23.694915)" />
    <linearGradient
       inkscape:collect="always"
       xlink:href="#ButtonShadow"
       id="linearGradient3104"
       gradientUnits="userSpaceOnUse"
       gradientTransform="matrix(1.0058652,0,0,0.994169,-136.0678,-12.20339)"
       x1="45.447727"
       y1="92.539597"
       x2="45.447727"
       y2="7.0165396" />
    <linearGradient
       inkscape:collect="always"
       xlink:href="#ButtonShadow"
       id="linearGradient3107"
       gradientUnits="userSpaceOnUse"
       gradientTransform="matrix(1.0058652,0,0,0.994169,-128.33898,-19.932203)"
       x1="45.447727"
       y1="92.539597"
       x2="45.447727"
       y2="7.0165396" />
    <linearGradient
       inkscape:collect="always"
       xlink:href="#ButtonShadow"
       id="linearGradient3110"
       gradientUnits="userSpaceOnUse"
       gradientTransform="matrix(1.0058652,0,0,0.994169,-112.0678,-12)"
       x1="45.447727"
       y1="92.539597"
       x2="45.447727"
       y2="7.0165396" />
    <linearGradient
       inkscape:collect="always"
       xlink:href="#ButtonShadow"
       id="linearGradient3113"
       gradientUnits="userSpaceOnUse"
       gradientTransform="matrix(1.0058652,0,0,0.994169,-143.18644,3.8644068)"
       x1="45.447727"
       y1="92.539597"
       x2="45.447727"
       y2="7.0165396" />
    <linearGradient
       inkscape:collect="always"
       xlink:href="#linearGradient3675"
       id="linearGradient3117"
       gradientUnits="userSpaceOnUse"
       gradientTransform="matrix(0,1.2375649,1,0,-0.31935933,95.399464)"
       x1="-29.806559"
       y1="8.3595457"
       x2="-29.220339"
       y2="86.881355" />
    <linearGradient
       id="linearGradient3743-8">
      <stop
         id="stop3745-2"
         style="stop-color:#ffffff;stop-opacity:1"
         offset="0" />
      <stop
         id="stop3747-6"
         style="stop-color:#ffffff;stop-opacity:0"
         offset="1" />
    </linearGradient>
    <linearGradient
       inkscape:collect="always"
       id="linearGradient136014">
      <stop
         style="stop-color:#ffffff;stop-opacity:1"
         offset="0"
         id="stop136016" />
      <stop
         style="stop-color:#7d7d7d;stop-opacity:0;"
         offset="1"
         id="stop136018" />
    </linearGradient>
    <linearGradient
       inkscape:collect="always"
       xlink:href="#linearGradient136014"
       id="linearGradient136020"
       x1="40.576271"
       y1="9.3559322"
       x2="40.576271"
       y2="67.322037"
       gradientUnits="userSpaceOnUse" />
    <linearGradient
       inkscape:collect="always"
       xlink:href="#linearGradient136014"
       id="linearGradient15937"
       x1="40.576271"
       y1="9.3559322"
       x2="40.576271"
       y2="67.322037"
       gradientUnits="userSpaceOnUse" />
    <clipPath
       id="clipPath3613-9">
      <rect
         width="84"
         height="84"
         rx="6"
         ry="6"
         x="6"
         y="6"
         id="rect3615-9"
         style="fill:#ffffff;fill-opacity:1;fill-rule:nonzero;stroke:none" />
    </clipPath>
    <filter
       x="-0.192"
       y="-0.192"
       width="1.3839999"
       height="1.3839999"
       color-interpolation-filters="sRGB"
       id="filter3794-7">
      <feGaussianBlur
         id="feGaussianBlur3796-2"
         stdDeviation="5.28" />
    </filter>
    <linearGradient
       inkscape:collect="always"
       xlink:href="#linearGradient136014"
       id="linearGradient15949"
       x1="40.576271"
       y1="9.3559322"
       x2="40.576271"
       y2="67.322037"
       gradientUnits="userSpaceOnUse" />
    <linearGradient
       inkscape:collect="always"
       xlink:href="#linearGradient136014"
       id="linearGradient15957"
       x1="40.576271"
       y1="9.3559322"
       x2="40.576271"
       y2="67.322037"
       gradientUnits="userSpaceOnUse" />
    <linearGradient
       inkscape:collect="always"
       xlink:href="#linearGradient3737-6"
       id="linearGradient136012"
       gradientUnits="userSpaceOnUse"
       x1="48"
       y1="20.220806"
       x2="48"
       y2="138.66119" />
    <linearGradient
       id="linearGradient3737-6">
      <stop
         id="stop3739-8"
         style="stop-color:#ffffff;stop-opacity:1"
         offset="0" />
      <stop
         id="stop3741-7"
         style="stop-color:#ffffff;stop-opacity:0"
         offset="1" />
    </linearGradient>
    <clipPath
       id="clipPath3613">
      <rect
         width="84"
         height="84"
         rx="6"
         ry="6"
         x="6"
         y="6"
         id="rect3615"
         style="fill:#ffffff;fill-opacity:1;fill-rule:nonzero;stroke:none" />
    </clipPath>
    <filter
       x="-0.192"
       y="-0.192"
       width="1.3839999"
       height="1.3839999"
       color-interpolation-filters="sRGB"
       id="filter3794">
      <feGaussianBlur
         id="feGaussianBlur3796"
         stdDeviation="5.28" />
    </filter>
    <linearGradient
       x1="32.251034"
       y1="6.1317081"
       x2="32.251034"
       y2="90.238609"
       id="linearGradient3059"
       xlink:href="#ButtonShadow-0"
       gradientUnits="userSpaceOnUse"
       gradientTransform="matrix(1.0238095,0,0,1.0119048,-1.1428571,-98.071429)" />
    <linearGradient
       x1="45.447727"
       y1="92.539597"
       x2="45.447727"
       y2="7.0165396"
       id="ButtonShadow-0"
       gradientUnits="userSpaceOnUse"
       gradientTransform="matrix(1.0058652,0,0,0.994169,100,0)">
      <stop
         id="stop3750-8"
         style="stop-color:#000000;stop-opacity:1"
         offset="0" />
      <stop
         id="stop3752-5"
         style="stop-color:#000000;stop-opacity:0.58823532"
         offset="1" />
    </linearGradient>
    <linearGradient
       x1="32.251034"
       y1="6.1317081"
       x2="32.251034"
       y2="90.238609"
       id="linearGradient3780"
       xlink:href="#ButtonShadow-0"
       gradientUnits="userSpaceOnUse"
       gradientTransform="matrix(1.0238095,0,0,1.0119048,-1.1428571,-98.071429)" />
    <linearGradient
       x1="45.447727"
       y1="92.539597"
       x2="45.447727"
       y2="7.0165396"
       id="linearGradient15978"
       gradientUnits="userSpaceOnUse"
       gradientTransform="matrix(1.0058652,0,0,0.994169,100,0)">
      <stop
         id="stop15980"
         style="stop-color:#000000;stop-opacity:1"
         offset="0" />
      <stop
         id="stop15982"
         style="stop-color:#000000;stop-opacity:0.58823532"
         offset="1" />
    </linearGradient>
    <linearGradient
       x1="32.251034"
       y1="6.1317081"
       x2="32.251034"
       y2="90.238609"
       id="linearGradient3772"
       xlink:href="#ButtonShadow-0"
       gradientUnits="userSpaceOnUse"
       gradientTransform="matrix(1.0238095,0,0,1.0119048,-1.1428571,-98.071429)" />
    <linearGradient
       x1="45.447727"
       y1="92.539597"
       x2="45.447727"
       y2="7.0165396"
       id="linearGradient15985"
       gradientUnits="userSpaceOnUse"
       gradientTransform="matrix(1.0058652,0,0,0.994169,100,0)">
      <stop
         id="stop15987"
         style="stop-color:#000000;stop-opacity:1"
         offset="0" />
      <stop
         id="stop15989"
         style="stop-color:#000000;stop-opacity:0.58823532"
         offset="1" />
    </linearGradient>
    <linearGradient
       x1="32.251034"
       y1="6.1317081"
       x2="32.251034"
       y2="90.238609"
       id="linearGradient3725"
       xlink:href="#ButtonShadow-0"
       gradientUnits="userSpaceOnUse"
       gradientTransform="matrix(1.0238095,0,0,1.0119048,-1.1428571,-98.071429)" />
    <linearGradient
       x1="45.447727"
       y1="92.539597"
       x2="45.447727"
       y2="7.0165396"
       id="linearGradient15992"
       gradientUnits="userSpaceOnUse"
       gradientTransform="matrix(1.0058652,0,0,0.994169,100,0)">
      <stop
         id="stop15994"
         style="stop-color:#000000;stop-opacity:1"
         offset="0" />
      <stop
         id="stop15996"
         style="stop-color:#000000;stop-opacity:0.58823532"
         offset="1" />
    </linearGradient>
    <linearGradient
       x1="32.251034"
       y1="6.1317081"
       x2="32.251034"
       y2="90.238609"
       id="linearGradient3721"
       xlink:href="#ButtonShadow-0"
       gradientUnits="userSpaceOnUse"
       gradientTransform="translate(0,-97)" />
    <linearGradient
       x1="45.447727"
       y1="92.539597"
       x2="45.447727"
       y2="7.0165396"
       id="linearGradient15999"
       gradientUnits="userSpaceOnUse"
       gradientTransform="matrix(1.0058652,0,0,0.994169,100,0)">
      <stop
         id="stop16001"
         style="stop-color:#000000;stop-opacity:1"
         offset="0" />
      <stop
         id="stop16003"
         style="stop-color:#000000;stop-opacity:0.58823532"
         offset="1" />
    </linearGradient>
    <linearGradient
       y2="67.322037"
       x2="40.576271"
       y1="9.3559322"
       x1="40.576271"
       gradientUnits="userSpaceOnUse"
       id="linearGradient16026"
       xlink:href="#linearGradient136014"
       inkscape:collect="always" />
    <linearGradient
       y2="67.322037"
       x2="40.576271"
       y1="9.3559322"
       x1="40.576271"
       gradientUnits="userSpaceOnUse"
       id="linearGradient16028"
       xlink:href="#linearGradient136014"
       inkscape:collect="always" />
    <linearGradient
       y2="67.322037"
       x2="40.576271"
       y1="9.3559322"
       x1="40.576271"
       gradientUnits="userSpaceOnUse"
       id="linearGradient16030"
       xlink:href="#linearGradient136014"
       inkscape:collect="always" />
    <linearGradient
       inkscape:collect="always"
       xlink:href="#ButtonShadow-0"
       id="linearGradient4354"
       gradientUnits="userSpaceOnUse"
       gradientTransform="matrix(1.0238095,0,0,1.0119048,-1.1428571,-98.071429)"
       x1="32.251034"
       y1="6.1317081"
       x2="32.251034"
       y2="90.238609" />
    <linearGradient
       inkscape:collect="always"
       xlink:href="#ButtonShadow-0"
       id="linearGradient4356"
       gradientUnits="userSpaceOnUse"
       gradientTransform="matrix(1.0238095,0,0,1.0119048,-1.1428571,-98.071429)"
       x1="32.251034"
       y1="6.1317081"
       x2="32.251034"
       y2="90.238609" />
    <linearGradient
       inkscape:collect="always"
       xlink:href="#ButtonShadow-0"
       id="linearGradient4358"
       gradientUnits="userSpaceOnUse"
       gradientTransform="matrix(1.0238095,0,0,1.0119048,-1.1428571,-98.071429)"
       x1="32.251034"
       y1="6.1317081"
       x2="32.251034"
       y2="90.238609" />
    <linearGradient
       inkscape:collect="always"
       xlink:href="#ButtonShadow-0"
       id="linearGradient4360"
       gradientUnits="userSpaceOnUse"
       gradientTransform="matrix(1.0238095,0,0,1.0119048,-1.1428571,-98.071429)"
       x1="32.251034"
       y1="6.1317081"
       x2="32.251034"
       y2="90.238609" />
    <linearGradient
       inkscape:collect="always"
       xlink:href="#ButtonShadow-0"
       id="linearGradient4362"
       gradientUnits="userSpaceOnUse"
       gradientTransform="translate(0,-97)"
       x1="32.251034"
       y1="6.1317081"
       x2="32.251034"
       y2="90.238609" />
    <linearGradient
       inkscape:collect="always"
       xlink:href="#linearGradient136014"
       id="linearGradient4364"
       gradientUnits="userSpaceOnUse"
       gradientTransform="translate(122.46752,-2.4522422)"
       x1="40.576271"
       y1="9.3559322"
       x2="40.576271"
       y2="67.322037" />
    <linearGradient
       inkscape:collect="always"
       xlink:href="#linearGradient136014"
       id="linearGradient4366"
       gradientUnits="userSpaceOnUse"
       gradientTransform="translate(122.46752,-2.4522422)"
       x1="40.576271"
       y1="9.3559322"
       x2="40.576271"
       y2="67.322037" />
    <radialGradient
       inkscape:collect="always"
       xlink:href="#linearGradient3743-8"
       id="radialGradient4368"
       gradientUnits="userSpaceOnUse"
       gradientTransform="matrix(1.1573129,0,0,0.99590774,114.78116,-2.1057802)"
       cx="48"
       cy="90.171875"
       fx="48"
       fy="90.171875"
       r="42" />
    <linearGradient
       inkscape:collect="always"
       id="linearGradient6931">
      <stop
         style="stop-color:#6cff27;stop-opacity:1"
         offset="0"
         id="stop6933" />
      <stop
         style="stop-color:#000000;stop-opacity:0;"
         offset="1"
         id="stop6935" />
    </linearGradient>
    <filter
       color-interpolation-filters="sRGB"
       inkscape:collect="always"
       id="filter4873">
      <feGaussianBlur
         inkscape:collect="always"
         stdDeviation="0.46342937"
         id="feGaussianBlur4875" />
    </filter>
    <linearGradient
       inkscape:collect="always"
       id="linearGradient4839">
      <stop
         style="stop-color:#0d3600;stop-opacity:1"
         offset="0"
         id="stop4841" />
      <stop
         style="stop-color:#000000;stop-opacity:0;"
         offset="1"
         id="stop4843" />
    </linearGradient>
    <filter
       color-interpolation-filters="sRGB"
       inkscape:collect="always"
       id="filter4851">
      <feGaussianBlur
         inkscape:collect="always"
         stdDeviation="0.23171469"
         id="feGaussianBlur4853" />
    </filter>
    <linearGradient
       inkscape:collect="always"
       xlink:href="#linearGradient4839"
       id="linearGradient4440"
       gradientUnits="userSpaceOnUse"
       x1="38.722157"
       y1="52.299099"
       x2="36.227013"
       y2="42.375374" />
    <linearGradient
       inkscape:collect="always"
       xlink:href="#linearGradient6931"
       id="linearGradient4442"
       gradientUnits="userSpaceOnUse"
       x1="36.07254"
       y1="32.759609"
       x2="43.793354"
       y2="50.503174" />
  </defs>
  <metadata
     id="metadata2413">
    <rdf:RDF>
      <cc:Work
         rdf:about="">
        <dc:format>image/svg+xml</dc:format>
        <dc:type
           rdf:resource="http://purl.org/dc/dcmitype/StillImage" />
        <dc:title></dc:title>
      </cc:Work>
    </rdf:RDF>
  </metadata>
  <g
     id="g4343"
     transform="translate(-122.5496,2.4406773)"
     inkscape:export-filename="/home/pieczar/Projects/f1lt/icons/ltdb.png"
     inkscape:export-xdpi="125.13"
     inkscape:export-ydpi="125.13">
    <g
       inkscape:export-ydpi="125.13"
       inkscape:export-xdpi="125.13"
       inkscape:export-filename="/home/pieczar/Projects/f1lt/icons/icon3.png"
       style="display:inline"
       id="layer4-5"
       transform="translate(122.44068,-3.5338982)">
      <path
         style="opacity:0.07999998;fill:url(#linearGradient4354);fill-opacity:1;fill-rule:nonzero;stroke:none;display:inline"
         id="path3786-1"
         transform="scale(1,-1)"
         d="m 12,-95.03125 c -5.5110903,0 -10.03125,4.52016 -10.03125,10.03125 l 0,71 c 0,5.5110902 4.5201598,10.03125 10.03125,10.03125 l 72,0 c 5.51109,0 10.03125,-4.5201597 10.03125,-10.03125 l 0,-71 c 0,-5.51109 -4.52016,-10.03125 -10.03125,-10.03125 l -72,0 z"
         inkscape:connector-curvature="0" />
      <path
         style="opacity:0.1;fill:url(#linearGradient4356);fill-opacity:1;fill-rule:nonzero;stroke:none;display:inline"
         id="path3778"
         transform="scale(1,-1)"
         d="m 12,-94.03125 c -4.971633,0 -9.03125,4.059617 -9.03125,9.03125 l 0,71 c 0,4.9716329 4.0596171,9.03125 9.03125,9.03125 l 72,0 c 4.971633,0 9.03125,-4.059617 9.03125,-9.03125 l 0,-71 c 0,-4.971633 -4.059617,-9.03125 -9.03125,-9.03125 l -72,0 z"
         inkscape:connector-curvature="0" />
      <path
         style="opacity:0.2;fill:url(#linearGradient4358);fill-opacity:1;fill-rule:nonzero;stroke:none;display:inline"
         id="path3770"
         transform="scale(1,-1)"
         d="m 12,-93 c -4.4091333,0 -8,3.590867 -8,8 l 0,71 c 0,4.4091333 3.5908667,8 8,8 l 72,0 c 4.409133,0 8,-3.5908667 8,-8 l 0,-71 c 0,-4.409133 -3.590867,-8 -8,-8 l -72,0 z"
         inkscape:connector-curvature="0" />
      <rect
         style="opacity:0.3;fill:url(#linearGradient4360);fill-opacity:1;fill-rule:nonzero;stroke:none;display:inline"
         id="rect3723"
         transform="scale(1,-1)"
         y="-92"
         x="5"
         ry="7"
         rx="7"
         height="85"
         width="86" />
      <rect
         style="opacity:0.45;fill:url(#linearGradient4362);fill-opacity:1;fill-rule:nonzero;stroke:none;display:inline"
         id="rect3716"
         transform="scale(1,-1)"
         y="-91"
         x="6"
         ry="6"
         rx="6"
         height="84"
         width="84" />
    </g>
    <path
       inkscape:export-ydpi="125.13"
       inkscape:export-xdpi="125.13"
       inkscape:export-filename="/home/pieczar/Projects/f1lt/icons/icon3.png"
       style="opacity:0.25;fill:url(#linearGradient4364);fill-opacity:1;fill-rule:nonzero;stroke:none"
       id="path136057"
       inkscape:connector-curvature="0"
       d="m 134.46752,3.5477578 c -3.324,0 -6,2.676 -6,6.000001 l 0,2.0000002 0,68 0,2 c 0,0.334721 0.0413,0.6507 0.0937,0.96875 0.0487,0.295596 0.097,0.596915 0.1875,0.875 0.01,0.03038 0.0209,0.0636 0.0312,0.09375 0.0989,0.287771 0.23488,0.547452 0.375,0.8125 0.14459,0.273507 0.31562,0.535615 0.5,0.78125 0.18439,0.245635 0.37378,0.473472 0.59375,0.6875 0.43995,0.428056 0.94291,0.814526 1.5,1.09375 0.27855,0.139612 0.57348,0.246947 0.875,0.34375 -0.2562,-0.100222 -0.48671,-0.236272 -0.71875,-0.375 -0.007,-0.0044 -0.0239,0.0045 -0.0312,0 -0.0319,-0.0193 -0.0623,-0.04251 -0.0937,-0.0625 -0.12039,-0.0767 -0.23102,-0.163513 -0.34375,-0.25 -0.10617,-0.0808 -0.21328,-0.161112 -0.3125,-0.25 -0.17793,-0.161433 -0.34746,-0.345388 -0.5,-0.53125 -0.10758,-0.130255 -0.21839,-0.265285 -0.3125,-0.40625 -0.0251,-0.03838 -0.0384,-0.08587 -0.0625,-0.125 -0.0648,-0.103032 -0.13022,-0.204517 -0.1875,-0.3125 -0.10101,-0.194706 -0.20567,-0.415701 -0.28125,-0.625 -0.008,-0.02181 -0.0236,-0.04055 -0.0312,-0.0625 -0.0318,-0.09195 -0.0358,-0.186831 -0.0625,-0.28125 -0.0303,-0.106618 -0.0704,-0.203031 -0.0937,-0.3125 -0.0729,-0.341512 -0.125,-0.698205 -0.125,-1.0625 l 0,-2 0,-68 0,-2 c 0,-2.7818482 2.21815,-5.0000012 5,-5.0000012 l 2,0 68,0 2,0 c 2.78185,0 5,2.218153 5,5.0000012 l 0,2 0,68 0,2 c 0,0.364295 -0.0521,0.720988 -0.125,1.0625 -0.0442,0.206893 -0.0884,0.397658 -0.15625,0.59375 -0.008,0.02195 -0.0233,0.04069 -0.0312,0.0625 -0.0627,0.173739 -0.13838,0.367449 -0.21875,0.53125 -0.0416,0.0828 -0.079,0.169954 -0.125,0.25 -0.0546,0.09721 -0.12677,0.18835 -0.1875,0.28125 -0.0941,0.140965 -0.20492,0.275995 -0.3125,0.40625 -0.14317,0.17445 -0.30314,0.346998 -0.46875,0.5 -0.0112,0.0102 -0.02,0.02115 -0.0312,0.03125 -0.13838,0.125556 -0.28509,0.234436 -0.4375,0.34375 -0.10257,0.07315 -0.20431,0.153364 -0.3125,0.21875 -0.007,0.0045 -0.0238,-0.0044 -0.0312,0 -0.23204,0.138728 -0.46254,0.274778 -0.71875,0.375 0.30153,-0.0968 0.59646,-0.204138 0.875,-0.34375 0.55709,-0.279224 1.06006,-0.665694 1.5,-1.09375 0.21998,-0.214028 0.40937,-0.441865 0.59375,-0.6875 0.18439,-0.245635 0.35541,-0.507743 0.5,-0.78125 0.14012,-0.265048 0.27614,-0.524729 0.375,-0.8125 0.0104,-0.03078 0.0213,-0.06274 0.0312,-0.09375 0.0905,-0.278085 0.1388,-0.579404 0.1875,-0.875 0.0524,-0.31805 0.0937,-0.634029 0.0937,-0.96875 l 0,-2 0,-68 0,-2.0000002 c 0,-3.324001 -2.676,-6.000001 -6,-6.000001 l -72,0 z" />
    <path
       inkscape:export-ydpi="125.13"
       inkscape:export-xdpi="125.13"
       inkscape:export-filename="/home/pieczar/Projects/f1lt/icons/icon3.png"
       style="opacity:0.15;fill:url(#linearGradient4366);fill-opacity:1;fill-rule:nonzero;stroke:none"
       id="path136059"
       inkscape:connector-curvature="0"
       d="m 134.46752,87.547759 c -3.324,0 -6,-2.676 -6,-6 l 0,-2 0,-68 0,-2.0000002 c 0,-0.334721 0.0413,-0.6507 0.0937,-0.96875 0.0487,-0.295596 0.097,-0.596915 0.1875,-0.875 0.01,-0.03038 0.0209,-0.0636 0.0312,-0.09375 0.0989,-0.287771 0.23488,-0.547452 0.375,-0.8125 0.14459,-0.273507 0.31562,-0.535616 0.5,-0.781251 0.18439,-0.245635 0.37378,-0.473472 0.59375,-0.6875 0.43995,-0.428056 0.94291,-0.814526 1.5,-1.09375 0.27855,-0.139612 0.57348,-0.246947 0.875,-0.34375 -0.2562,0.100222 -0.48671,0.236272 -0.71875,0.375 -0.007,0.0044 -0.0239,-0.0045 -0.0312,0 -0.0319,0.0193 -0.0623,0.04251 -0.0937,0.0625 -0.12039,0.0767 -0.23102,0.163513 -0.34375,0.25 -0.10617,0.0808 -0.21328,0.161112 -0.3125,0.25 -0.17793,0.161433 -0.34746,0.345388 -0.5,0.53125 -0.10758,0.130255 -0.21839,0.265285 -0.3125,0.40625 -0.0251,0.03838 -0.0384,0.08587 -0.0625,0.125 -0.0648,0.103032 -0.13022,0.204517 -0.1875,0.3125 -0.10101,0.194706 -0.20567,0.415702 -0.28125,0.625001 -0.008,0.02181 -0.0236,0.04055 -0.0312,0.0625 -0.0318,0.09195 -0.0358,0.186831 -0.0625,0.28125 -0.0303,0.106618 -0.0704,0.203031 -0.0937,0.3125 -0.0729,0.341512 -0.125,0.698205 -0.125,1.0625 l 0,2.0000002 0,68 0,2 c 0,2.781848 2.21815,5 5,5 l 2,0 68,0 2,0 c 2.78185,0 5,-2.218152 5,-5 l 0,-2 0,-68 0,-2.0000002 c 0,-0.364295 -0.0521,-0.720988 -0.125,-1.0625 -0.0442,-0.206893 -0.0884,-0.397658 -0.15625,-0.59375 -0.008,-0.02195 -0.0233,-0.04069 -0.0312,-0.0625 -0.0627,-0.173739 -0.13838,-0.36745 -0.21875,-0.531251 -0.0416,-0.0828 -0.079,-0.169954 -0.125,-0.25 -0.0546,-0.09721 -0.12677,-0.18835 -0.1875,-0.28125 -0.0941,-0.140965 -0.20492,-0.275995 -0.3125,-0.40625 -0.14317,-0.17445 -0.30314,-0.346998 -0.46875,-0.5 -0.0112,-0.0102 -0.02,-0.02115 -0.0312,-0.03125 -0.13838,-0.125556 -0.28509,-0.234436 -0.4375,-0.34375 -0.10257,-0.07315 -0.20431,-0.153364 -0.3125,-0.21875 -0.007,-0.0045 -0.0238,0.0044 -0.0312,0 -0.23204,-0.138728 -0.46254,-0.274778 -0.71875,-0.375 0.30153,0.0968 0.59646,0.204138 0.875,0.34375 0.55709,0.279224 1.06006,0.665694 1.5,1.09375 0.21998,0.214028 0.40937,0.441865 0.59375,0.6875 0.18439,0.245635 0.35541,0.507744 0.5,0.781251 0.14012,0.265048 0.27614,0.524729 0.375,0.8125 0.0104,0.03078 0.0213,0.06274 0.0312,0.09375 0.0905,0.278085 0.1388,0.579404 0.1875,0.875 0.0524,0.31805 0.0937,0.634029 0.0937,0.96875 l 0,2.0000002 0,68 0,2 c 0,3.324 -2.676,6 -6,6 l -72,0 z" />
    <path
       inkscape:export-ydpi="125.13"
       inkscape:export-xdpi="125.13"
       inkscape:export-filename="/home/pieczar/Projects/f1lt/icons/icon3.png"
       d="m 134.33218,87.697089 c -3.324,0 -6,-2.676 -6,-6 l 0,-2 0,-68 0,-2.0000002 c 0,-0.334721 0.0413,-0.650701 0.0937,-0.968751 0.0487,-0.295596 0.097,-0.596915 0.1875,-0.875 0.01,-0.03038 0.0209,-0.0636 0.0312,-0.09375 0.0989,-0.287771 0.23488,-0.547452 0.375,-0.8125 0.1446,-0.273507 0.31562,-0.535615 0.5,-0.78125 0.18439,-0.245635 0.37378,-0.473472 0.59375,-0.6875 0.43995,-0.428056 0.94291,-0.814526 1.5,-1.09375 0.27855,-0.139612 0.57348,-0.246947 0.875,-0.34375 -0.2562,0.100222 -0.48671,0.236272 -0.71875,0.375 -0.007,0.0044 -0.0239,-0.0045 -0.0312,0 -0.0319,0.0193 -0.0623,0.04251 -0.0937,0.0625 -0.12039,0.0767 -0.23102,0.163513 -0.34375,0.25 -0.10617,0.0808 -0.21328,0.161112 -0.3125,0.25 -0.17793,0.161433 -0.34746,0.345388 -0.5,0.53125 -0.10757,0.130255 -0.21839,0.265285 -0.3125,0.40625 -0.0251,0.03838 -0.0385,0.08587 -0.0625,0.125 -0.0648,0.103032 -0.13022,0.204517 -0.1875,0.3125 -0.101,0.194706 -0.20567,0.415701 -0.28125,0.625 -0.008,0.02181 -0.0236,0.04055 -0.0312,0.0625 -0.0318,0.09195 -0.0358,0.186831 -0.0625,0.28125 -0.0303,0.106618 -0.0704,0.203031 -0.0937,0.3125 -0.0729,0.341512 -0.125,0.698205 -0.125,1.0625 l 0,2.0000012 0,68 0,2 c 0,2.781848 2.21816,5 5,5 l 2,0 68,0 2,0 c 2.78185,0 5,-2.218152 5,-5 l 0,-2 0,-68 0,-2.0000012 c 0,-0.364295 -0.0521,-0.720988 -0.125,-1.0625 -0.0442,-0.206893 -0.0884,-0.397658 -0.15625,-0.59375 -0.008,-0.02195 -0.0233,-0.04069 -0.0312,-0.0625 -0.0627,-0.173739 -0.13838,-0.367449 -0.21875,-0.53125 -0.0416,-0.0828 -0.079,-0.169954 -0.125,-0.25 -0.0546,-0.09721 -0.12678,-0.18835 -0.1875,-0.28125 -0.0941,-0.140965 -0.20492,-0.275995 -0.3125,-0.40625 -0.14318,-0.17445 -0.30314,-0.346998 -0.46875,-0.5 -0.0112,-0.0102 -0.02,-0.02115 -0.0312,-0.03125 -0.13839,-0.125556 -0.28509,-0.234436 -0.4375,-0.34375 -0.10257,-0.07315 -0.20432,-0.153364 -0.3125,-0.21875 -0.007,-0.0045 -0.0238,0.0044 -0.0312,0 -0.23204,-0.138728 -0.46255,-0.274778 -0.71875,-0.375 0.30153,0.0968 0.59645,0.204138 0.875,0.34375 0.55709,0.279224 1.06005,0.665694 1.5,1.09375 0.21997,0.214028 0.40936,0.441865 0.59375,0.6875 0.18438,0.245635 0.35541,0.507743 0.5,0.78125 0.14012,0.265048 0.27613,0.524729 0.375,0.8125 0.0104,0.03078 0.0213,0.06274 0.0312,0.09375 0.0905,0.278085 0.1388,0.579404 0.1875,0.875 0.0524,0.31805 0.0937,0.63403 0.0937,0.968751 l 0,2.0000002 0,68 0,2 c 0,3.324 -2.676,6 -6,6 l -72,0 z"
       inkscape:connector-curvature="0"
       id="path3615-22"
       style="opacity:0.15;fill:url(#radialGradient4368);fill-opacity:1;fill-rule:nonzero;stroke:none" />
  </g>
  <g
     id="layer2"
     style="display:none">
    <path
       d="M 33.125,3 C 31.94775,3 31,3.892 31,5 L 31,7 11,7 C 7.676,7 5,9.676 5,13 l 0,4 2,0 0,64 -2,0 0,5 c 0,3.324 2.676,6 6,6 l 74,0 c 3.324,0 6,-2.676 6,-6 l 0,-5 -2,0 0,-64 2,0 0,-4 C 91,9.676 88.324,7 85,7 L 65,7 65,5 C 65,3.892 64.05225,3 62.875,3 l -29.75,0 z"
       inkscape:connector-curvature="0"
       clip-path="url(#clipPath3950)"
       id="rect3745"
       style="opacity:0.9;fill:url(#linearGradient3938);fill-opacity:1;fill-rule:nonzero;stroke:none;filter:url(#filter3941)" />
  </g>
  <path
     style="opacity:0.07999998;fill:url(#linearGradient3113);fill-opacity:1;fill-rule:nonzero;stroke:none;display:inline"
     id="path3823"
     inkscape:connector-curvature="0"
     d="m -81.998941,3.8644068 c -0.397491,0.00825 -0.785849,0.028613 -1.15625,0.0625 -0.02924,0.00267 -0.06474,-0.0028 -0.09375,0 l -26.718749,0 -0.0937,0 c -1.16882,-0.084259 -2.14485,0.3026254 -2.8125,0.875 -0.68685,0.5888286 -1.09691,1.3061036 -1.46875,1.90625 -0.37184,0.6001464 -0.72214,1.0499405 -1.03125,1.25 -0.30911,0.2000595 -0.61474,0.3148293 -1.4375,0.03125 a 0.86455639,0.86455639 0 0 0 -0.3125,-0.0625 c -5.25583,0.097195 -10.57968,-0.2163099 -15.9375,0.1875 a 0.86455639,0.86455639 0 0 0 -0.0937,0.03125 c -5.33895,0.9429563 -8.45647,6.2879082 -7.9375,11.3750002 0.009,0.08388 -0.0106,0.166291 0,0.25 -0.0994,0.807972 -0.0459,1.671872 0.34375,2.4375 0.30702,0.603296 0.91991,1.046175 1.625,1.3125 l 0,58.75 c -0.37658,0.140785 -0.80378,0.203738 -1.0625,0.46875 -0.45526,0.466334 -0.68768,1.05842 -0.8125,1.625 -0.24965,1.133159 -0.14548,2.323243 -0.125,3.125 l 0.0312,0 c -0.73243,6.064203 4.46323,11.901815 10.6875,11.3125 0.0319,-0.003 0.0617,0.0034 0.0937,0 24.01441,-0.03087 48.043004,0.04687 72.062499,-0.0625 a 0.86455639,0.86455639 0 0 0 0.0625,0 c 5.801203,-0.424193 9.548857,-6.157455 8.90625,-11.625 l 0.03125,0 c 0.0643,-0.825289 0.143136,-1.942787 -0.15625,-3 -0.149693,-0.528607 -0.423042,-1.051295 -0.875,-1.46875 -0.240781,-0.222399 -0.638664,-0.252905 -0.96875,-0.375 l 0,-58.8125 c 0.376582,-0.140785 0.803783,-0.203738 1.0625,-0.46875 0.455257,-0.466334 0.687677,-1.05842 0.8125,-1.625 0.242169,-1.099219 0.150535,-2.231748 0.125,-3.03125 -2.63e-4,-0.0082 2.44e-4,-0.02309 0,-0.03125 0.0015,-0.02141 -0.0013,-0.04112 0,-0.0625 0.387746,-6.185204 -5.55129,-11.0499621 -11.5,-10.2812502 l 0,-0.03125 -14.71875,0 c -0.239862,-1.1922475 -0.772244,-2.2004948 -1.625,-2.8125 -1.066381,-0.7653199 -2.402695,-1.1082624 -3.6875,-1.21875 -0.414636,-0.035657 -0.821259,-0.039505 -1.21875,-0.03125 z m -27.187499,2 27.999999,0 c 1.108,0 2,0.892 2,2 l 0,1 0,1 8,0 12,0 c 3.324,0 6,2.6760002 6,6.0000002 l 0,2 0,2 -2,0 0,2 0,18 0,42 0,2 2,0 0,2 0,2 c 0,3.324 -2.676,6 -6,6 l -71.999999,0 c -3.324,0 -6,-2.676 -6,-6 l 0,-2 0,-2 2,0 0,-42 0,-2 0,-18 0,-2 -2,0 0,-4 c 0,-3.324 2.676,-6.0000002 6,-6.0000002 l 20,0 0,-1 0,-1 c 0,-1.108 0.892,-2 2,-2 z" />
  <path
     style="opacity:0.1;fill:url(#linearGradient3110);fill-opacity:1;fill-rule:nonzero;stroke:none;display:inline"
     id="path3809"
     inkscape:connector-curvature="0"
     d="m -50.911547,-11.125 c -0.389872,0.0053 -0.761421,0.02745 -1.125,0.0625 l -26.90625,0 c -4.067307,-0.383009 -3.074945,5.3636191 -7.03125,4 -5.300067,0.098014 -10.625244,-0.2105206 -15.906253,0.1875 -4.9158,0.8682211 -7.84785,5.95189899 -7.25,10.6875 -0.24847,1.39797 0.33275,3.220116 2,3.25 l 0,59.875 c -2.39916,0.149376 -2.04342,2.956527 -2,4.65625 -0.76966,5.585719 4.11707,11.0707 9.843753,10.46875 24.048234,-0.0312 48.110006,0.04699 72.15625,-0.0625 5.317933,-0.388856 8.813922,-5.757617 8.125,-10.8125 0.125234,-1.607312 0.201595,-4.150212 -2,-4.25 l 0,-59.875 c 2.399162,-0.149376 2.043422,-2.956527 2,-4.65625 0.4155,-5.6801878 -5.151622,-10.2494052 -10.625,-9.46875 l -15.375,0 c -0.04898,-3.290118 -3.177145,-4.099369 -5.90625,-4.0625 z m -27.15625,1.125 28,0 c 1.108,0 2,0.892 2,2 l 0,1 0,1 8,0 12,0 c 3.324,0 6,2.676 6,6 l 0,2 0,2 -2,0 0,2 0,18 0,42 0,2 2,0 0,2 0,2 c 0,3.324 -2.676,6 -6,6 l -72.000003,0 c -3.324,0 -6,-2.676 -6,-6 l 0,-2 0,-2 2,0 0,-42 0,-2 0,-18 0,-2 -2,0 0,-4 c 0,-3.324 2.676,-6 6,-6 l 20.000003,0 0,-1 0,-1 c 0,-1.108 0.892,-2 2,-2 z" />
  <path
     style="opacity:0.2;fill:url(#linearGradient3107);fill-opacity:1;fill-rule:nonzero;stroke:none;display:inline"
     id="path3800"
     inkscape:connector-curvature="0"
     d="m -95.213983,-17.932203 c -1.684992,0 -3.125,1.318806 -3.125,3 l 0,1 2,0 0,-1 0,-1 c 0,-1.108 0.892,-2 2,-2 l -0.875,0 z m 28.875,0 c 1.108,0 2,0.892 2,2 l 0,1 0,1 2,0 0,-1 c 0,-1.681194 -1.440008,-3 -3.125,-3 l -0.875,0 z m -50.812497,4.03125 c -4.03348,0.409765 -7.1875,3.827366 -7.1875,7.9687496 l 0,3 a 1.0052675,1.0052675 0 0 0 1,1 l 1,0 0,62.0000004 2,0 0,-42 0,-2 0,-18.0000004 0,-2 -2,0 0,-4 c 0,-3.1162496 2.34211,-5.6625826 5.375,-5.9687496 -0.0624,0.0049 -0.12554,-0.0063 -0.1875,0 z m -5.1875,73.96875 -1,0 a 1.0052675,1.0052675 0 0 0 -1,1 l 0,4 c 0,4.417476 3.58252,8 8,8 l 71.999997,0 c 4.417476,0 8,-3.582524 8,-8 l 0,-4 a 1.0052675,1.0052675 0 0 0 -1,-1 l -1,0 0,2 0,2 c 0,3.324 -2.676,6 -6,6 l -71.999997,0 c -3.324,0 -6,-2.676 -6,-6 l 0,-2 0,-2 z m 83.999997,0 0,-62.0000004 1,0 a 1.0052675,1.0052675 0 0 0 1,-1 l 0,-3 c 0,-4.2050036 -3.252504,-7.6467506 -7.375,-7.9687496 3.032886,0.306167 5.375,2.8525 5.375,5.9687496 l 0,2 0,2 -2,0 0,2 0,18.0000004 0,42 0,2 2,0 z" />
  <path
     style="opacity:0.3;fill:url(#linearGradient3104);fill-opacity:1;fill-rule:nonzero;stroke:none;display:inline"
     id="path2956"
     inkscape:connector-curvature="0"
     d="m -103.91155,-8.9846398 c -0.69109,0.3293419 -1.15625,0.9996513 -1.15625,1.78125 l 0,1 1,0 0,-1 0,-1 c 0,-0.277 0.0553,-0.5418125 0.15625,-0.78125 z m 31.687503,0 c 0.100938,0.2394375 0.15625,0.50425 0.15625,0.78125 l 0,1 0,1 1,0 0,-1 c 0,-0.7815987 -0.465153,-1.4519081 -1.15625,-1.78125 z m -57.406253,6.53125 c -0.89949,1.177446 -1.4375,2.64727697 -1.4375,4.25 l 0,3.0000001 2,0 0,62.9999997 1,0 0,-42 0,-2 0,-17.9999997 0,-2 -2,0 0,-4.00000013 c 0,-0.796375 0.15819,-1.55590497 0.4375,-2.24999997 z m 83.125003,0 c 0.279316,0.694095 0.4375,1.45362497 0.4375,2.24999997 l 0,2.00000003 0,2.0000001 -2,0 0,2 0,17.9999997 0,42 0,2 1,0 0,-62.9999997 2,0 0,-3.0000001 c 0,-1.60272303 -0.538011,-3.072554 -1.4375,-4.25 z M -131.0678,68.79661 l 0,4 c 0,3.878 3.122,7 7,7 l 72.000003,0 c 3.878,0 7,-3.122 7,-7 l 0,-4 -1,0 0,1 0,2 c 0,3.324 -2.676,6 -6,6 l -72.000003,0 c -3.324,0 -6,-2.676 -6,-6 l 0,-2 0,-1 -1,0 z" />
  <path
     style="fill:#ff00ff;fill-opacity:1;stroke:none"
     id="path3731"
     inkscape:connector-curvature="0"
     d="m -268.64407,8.5423729 0,16.0000001 0,64 0,15.999997 96,0 0,-15.999997 0,-64 0,-16.0000001 -96,0 z m 12.21875,6.2812501 71.5625,0 c 3.30255,0 5.9375,2.634954 5.9375,5.9375 l 0,3.78125 -1.71875,0 0,64 1.71875,0 0,3.78125 c 0,3.302546 -2.63495,5.9375 -5.9375,5.9375 l -71.5625,0 c -3.30255,0 -5.9375,-2.634954 -5.9375,-5.9375 l 0,-3.78125 1.71875,0 0,-64 -1.71875,0 0,-3.78125 c 0,-3.302546 2.63495,-5.9375 5.9375,-5.9375 z" />
  <path
     style="fill:#ff0000;fill-opacity:1;fill-rule:nonzero;stroke:none;display:inline"
     id="path3788"
     inkscape:connector-curvature="0"
     d="m -234.64407,10.542373 c -1.108,0 -2,0.892 -2,2 l 0,1 0,1 -20,0 c -3.324,0 -6,2.676 -6,6 l 0,4 2,0 0,2 0,18 0,2 0,42 -2,0 0,2 0,2 c 0,3.324 2.676,6 6,6 l 72,0 c 3.324,0 6,-2.676 6,-6 l 0,-2 0,-2 -2,0 0,-2 0,-42 0,-18 0,-2 2,0 0,-2 0,-2 c 0,-3.324 -2.676,-6 -6,-6 l -12,0 -8,0 0,-1 0,-1 c 0,-1.108 -0.892,-2 -2,-2 l -28,0 z" />
  <g
     id="layer4"
     transform="translate(323.18644,-84.40678)">
    <path
       d="M 8,36 8,80 88,80 88,36 8,36 z"
       inkscape:connector-curvature="0"
       id="rect3814"
       style="fill:url(#radialGradient3901);fill-opacity:1;fill-rule:nonzero;stroke:none;display:inline" />
    <path
       d="m 8,78 0,2 80,0 0,-2 -80,0 z"
       inkscape:connector-curvature="0"
       id="rect3845"
       style="opacity:0.6;fill:#338000;fill-opacity:1;stroke:none" />
    <path
       d="m 48,36 0,44 40,0 0,-44 -40,0 z"
       inkscape:connector-curvature="0"
       id="path3856"
       style="fill:url(#linearGradient3897);fill-opacity:1;fill-rule:nonzero;stroke:none;display:inline" />
    <path
       d="m 8,36 0,2 80,0 0,-2 -80,0 z"
       inkscape:connector-curvature="0"
       id="rect3829"
       style="opacity:0.4;fill:#aad400;fill-opacity:1;stroke:none" />
    <path
       d="m 8,36 0,44 2,0 0,-44 -2,0 z m 78,0 0,44 2,0 0,-44 -2,0 z"
       inkscape:connector-curvature="0"
       id="rect3991"
       style="opacity:0.3;fill:#aad400;fill-opacity:1;stroke:none;display:inline" />
  </g>
  <rect
     style="fill:url(#linearGradient3096);fill-opacity:1;stroke:none"
     id="rect3769"
     y="-21.694916"
     x="26.20339"
     ry="2"
     rx="2"
     height="8.1000004"
     width="32" />
  <path
     style="fill:url(#linearGradient3093);fill-opacity:1;fill-rule:nonzero;stroke:none"
     id="rect2419"
     inkscape:connector-curvature="0"
     d="m 351.72881,-68.610169 0,63.9999998 80,0 0,-63.9999998 -80,0 z" />
  <path
     style="fill:url(#linearGradient3090);fill-opacity:1;fill-rule:nonzero;stroke:none"
     id="rect3754"
     inkscape:connector-curvature="0"
     d="m 92.338983,-18.61017 c -3.324,0 -6,2.676 -6,6 l 0,4.0000005 83.999997,0 0,-4.0000005 c 0,-3.324 -2.676,-6 -6,-6 l -71.999997,0 z" />
  <path
     style="fill:url(#linearGradient3087);fill-opacity:1;fill-rule:nonzero;stroke:none"
     id="path3765"
     inkscape:connector-curvature="0"
     d="m 141.76271,114 c -3.324,0 -6,-2.676 -6,-6 l 0,-4 84,0 0,4 c 0,3.324 -2.676,6 -6,6 l -72,0 z" />
  <path
     style="opacity:0.5;fill:#ffffff;fill-opacity:1;stroke:none"
     id="rect3779"
     inkscape:connector-curvature="0"
     d="m 56.677966,-22.20339 c -1.108,0 -2,0.892 -2,2 l 0,1 c 0,-1.108 0.892,-2 2,-2 l 28,0 c 1.108,0 2,0.892 2,2 l 0,-1 c 0,-1.108 -0.892,-2 -2,-2 l -28,0 z" />
  <rect
     style="opacity:0.28999999;fill:#ffffff;fill-opacity:1;stroke:none;display:inline"
     id="rect3847"
     y="-39.491524"
     x="296.74576"
     height="2"
     width="84" />
  <rect
     style="opacity:0.1;fill:#000000;fill-opacity:1;stroke:none;display:inline"
     id="rect3854"
     y="-34.81356"
     x="295.42374"
     height="2"
     width="84" />
  <path
     style="opacity:0.1;fill:#000000;fill-opacity:1;stroke:none;display:inline"
     id="rect3869"
     inkscape:connector-curvature="0"
     d="m 298.74576,-24.881356 0,2 80,0 0,-2 -80,0 z" />
  <rect
     style="fill:#ff00ff;fill-opacity:1;fill-rule:nonzero;stroke:none"
     id="rect3913"
     transform="scale(1,-1)"
     y="-102.61017"
     x="294.98306"
     ry="6"
     rx="6"
     height="84"
     width="84" />
  <rect
     style="opacity:0.4;fill:#ffffff;fill-opacity:1;stroke:none"
     id="rect3987"
     y="16"
     x="8"
     height="20"
     width="2"
     inkscape:export-filename="/home/pieczar/Projects/f1lt/icons/ltdb.png"
     inkscape:export-xdpi="125.13"
     inkscape:export-ydpi="125.13" />
  <rect
     style="opacity:0.3;fill:#ffffff;fill-opacity:1;stroke:none"
     id="rect3989"
     y="16"
     x="86"
     height="20"
     width="2"
     inkscape:export-filename="/home/pieczar/Projects/f1lt/icons/ltdb.png"
     inkscape:export-xdpi="125.13"
     inkscape:export-ydpi="125.13" />
  <g
     id="layer5"
     style="display:inline"
     transform="translate(-122.84746,-24.40678)">
    <path
       d="M 10.15625,6.34375 C 9.8547231,6.440553 9.559795,6.547888 9.28125,6.6875 8.72416,6.966724 8.221197,7.353194 7.78125,7.78125 7.5612765,7.995278 7.3718839,8.223115 7.1875,8.46875 7.0031161,8.714385 6.8320918,8.976493 6.6875,9.25 6.5473802,9.515048 6.411365,9.774729 6.3125,10.0625 6.302142,10.09265 6.29113,10.12587 6.28125,10.15625 6.19079,10.434335 6.14245,10.735654 6.09375,11.03125 6.04135,11.3493 6,11.665279 6,12 l 0,2 0,2 1,0 0,-3 0,-2 C 7,10.635705 7.0521214,10.279012 7.125,9.9375 7.1483606,9.828031 7.1884177,9.731618 7.21875,9.625 7.2454455,9.530581 7.2494249,9.4357 7.28125,9.34375 7.288911,9.3218 7.30454,9.30306 7.3125,9.28125 7.3880752,9.071951 7.4927417,8.850956 7.59375,8.65625 7.6510225,8.548267 7.716487,8.446782 7.78125,8.34375 7.805304,8.30462 7.818661,8.25713 7.84375,8.21875 7.9378561,8.077785 8.0486711,7.942755 8.15625,7.8125 c 0.1525404,-0.185862 0.3220701,-0.369817 0.5,-0.53125 0.099219,-0.088888 0.2063272,-0.1692 0.3125,-0.25 0.1127274,-0.086487 0.223355,-0.1733 0.34375,-0.25 0.031457,-0.01999 0.061817,-0.0432 0.09375,-0.0625 0.00738,-0.0045 0.02384,0.0044 0.03125,0 0.2320391,-0.138728 0.4625482,-0.274778 0.71875,-0.375 z m 75.6875,0 c 0.256202,0.100222 0.486711,0.236272 0.71875,0.375 0.0074,0.0044 0.02385,-0.0045 0.03125,0 0.108182,0.065386 0.209929,0.1456 0.3125,0.21875 0.152409,0.109314 0.299114,0.218194 0.4375,0.34375 0.01127,0.0101 0.02008,0.02105 0.03125,0.03125 0.165609,0.153002 0.325576,0.32555 0.46875,0.5 0.107579,0.130255 0.21839,0.265285 0.3125,0.40625 0.06073,0.0929 0.1329,0.18404 0.1875,0.28125 0.04596,0.080046 0.08342,0.1672 0.125,0.25 0.08037,0.163801 0.15601,0.357511 0.21875,0.53125 0.0079,0.02181 0.02355,0.04055 0.03125,0.0625 0.06787,0.196092 0.1121,0.386857 0.15625,0.59375 C 88.94788,10.279012 89,10.635705 89,11 l 0,2 0,3 1,0 0,-2 0,-2 c 0,-0.334721 -0.04135,-0.6507 -0.09375,-0.96875 -0.0487,-0.295596 -0.09704,-0.596915 -0.1875,-0.875 C 89.70883,10.12524 89.69791,10.09328 89.6875,10.0625 89.588635,9.774729 89.45262,9.515048 89.3125,9.25 89.167908,8.976493 88.996884,8.714385 88.8125,8.46875 88.628116,8.223115 88.438723,7.995278 88.21875,7.78125 87.778803,7.353194 87.27584,6.966724 86.71875,6.6875 86.440205,6.547888 86.145277,6.44055 85.84375,6.34375 z M 6,80 l 0,2 0,2 c 0,3.324 2.676,6 6,6 l 72,0 c 3.324,0 6,-2.676 6,-6 l 0,-2 0,-2 -1,0 0,1 0,2 c 0,2.781848 -2.218152,5 -5,5 l -2,0 -68,0 -2,0 C 9.2181517,88 7,85.781848 7,83 l 0,-2 0,-1 -1,0 z"
       inkscape:connector-curvature="0"
       id="path3615"
       style="opacity:0.2;fill:url(#radialGradient3619);fill-opacity:1;fill-rule:nonzero;stroke:none;display:inline" />
    <path
       d="M 12,6 C 8.676,6 6,8.676 6,12 l 0,2 0,2 1,0 0,-1 0,-2 C 7,10.218152 9.2181517,8 12,8 l 2,0 68,0 2,0 c 2.781848,0 5,2.218152 5,5 l 0,2 0,1 1,0 0,-2 0,-2 C 90,8.676 87.324,6 84,6 L 12,6 z m -6,74 0,2 0,2 c 0,0.334721 0.04135,0.6507 0.09375,0.96875 0.0487,0.295596 0.09704,0.596915 0.1875,0.875 0.00988,0.03038 0.020892,0.0636 0.03125,0.09375 0.098865,0.287771 0.2348802,0.547452 0.375,0.8125 0.1445918,0.273507 0.3156161,0.535615 0.5,0.78125 0.1843839,0.245635 0.3737765,0.473472 0.59375,0.6875 0.439947,0.428056 0.94291,0.814526 1.5,1.09375 0.278545,0.139612 0.5734731,0.246947 0.875,0.34375 -0.2562018,-0.100222 -0.4867109,-0.236272 -0.71875,-0.375 -0.00741,-0.0044 -0.023866,0.0045 -0.03125,0 -0.031933,-0.0193 -0.062293,-0.04251 -0.09375,-0.0625 -0.120395,-0.0767 -0.2310226,-0.163513 -0.34375,-0.25 -0.1061728,-0.0808 -0.2132809,-0.161112 -0.3125,-0.25 C 8.4783201,88.557317 8.3087904,88.373362 8.15625,88.1875 8.0486711,88.057245 7.9378561,87.922215 7.84375,87.78125 7.818661,87.74287 7.805304,87.69538 7.78125,87.65625 7.716487,87.553218 7.6510225,87.451733 7.59375,87.34375 7.4927417,87.149044 7.3880752,86.928049 7.3125,86.71875 7.30454,86.69694 7.288911,86.6782 7.28125,86.65625 7.2494249,86.5643 7.2454455,86.469419 7.21875,86.375 7.1884177,86.268382 7.1483606,86.171969 7.125,86.0625 7.0521214,85.720988 7,85.364295 7,85 l 0,-2 0,-3 -1,0 z m 83,0 0,3 0,2 c 0,0.364295 -0.05212,0.720988 -0.125,1.0625 -0.04415,0.206893 -0.08838,0.397658 -0.15625,0.59375 -0.0077,0.02195 -0.0233,0.04069 -0.03125,0.0625 -0.06274,0.173739 -0.138383,0.367449 -0.21875,0.53125 -0.04158,0.0828 -0.07904,0.169954 -0.125,0.25 -0.0546,0.09721 -0.126774,0.18835 -0.1875,0.28125 -0.09411,0.140965 -0.204921,0.275995 -0.3125,0.40625 -0.143174,0.17445 -0.303141,0.346998 -0.46875,0.5 -0.01117,0.0102 -0.01998,0.02115 -0.03125,0.03125 -0.138386,0.125556 -0.285091,0.234436 -0.4375,0.34375 -0.102571,0.07315 -0.204318,0.153364 -0.3125,0.21875 -0.0074,0.0045 -0.02384,-0.0044 -0.03125,0 -0.232039,0.138728 -0.462548,0.274778 -0.71875,0.375 0.301527,-0.0968 0.596455,-0.204138 0.875,-0.34375 0.55709,-0.279224 1.060053,-0.665694 1.5,-1.09375 0.219973,-0.214028 0.409366,-0.441865 0.59375,-0.6875 0.184384,-0.245635 0.355408,-0.507743 0.5,-0.78125 0.14012,-0.265048 0.276135,-0.524729 0.375,-0.8125 0.01041,-0.03078 0.02133,-0.06274 0.03125,-0.09375 0.09046,-0.278085 0.1388,-0.579404 0.1875,-0.875 C 89.95865,84.6507 90,84.334721 90,84 l 0,-2 0,-2 -1,0 z"
       inkscape:connector-curvature="0"
       id="rect3728"
       style="opacity:0.2;fill:url(#linearGradient3188);fill-opacity:1;fill-rule:nonzero;stroke:none;display:inline" />
  </g>
  <g
     id="layer6"
     transform="translate(289.82114,-77.826033)">
    <path
       d="m 68,22 0,2 16,0 0,-2 -16,0 z m 0,8 0,2 16,0 0,-2 -16,0 z m 0,8 0,2 16,0 0,-2 -16,0 z m 0,8 0,2 16,0 0,-2 -16,0 z m 0,8 0,2 16,0 0,-2 -16,0 z m 0,8 0,2 16,0 0,-2 -16,0 z m 0,8 0,2 16,0 0,-2 -16,0 z"
       inkscape:connector-curvature="0"
       id="rect3955"
       style="opacity:0.8;fill:url(#linearGradient3976);fill-opacity:1;stroke:none" />
    <path
       d="m 57.980764,44 0,12 L 64,56 l -6.019236,16 0,-12 -6.019235,0 6.019235,-16 z"
       inkscape:connector-curvature="0"
       id="path3887"
       style="opacity:0.8;fill:#ffffff;stroke:none;display:inline" />
  </g>
  <path
     d="m 10.666458,88.067024 c 0,0 -2.7192063,-1.388428 -2.7206481,-4.415541 L 7.9098007,10.857766 C 8.3298758,9.5793583 9.1334309,8.4752594 11.642716,8.1464923 l 73.425892,0.029224 c 0.99087,0.5453485 2.049104,-0.054483 2.861514,3.5246879 l 0.007,72.433774 c 0.002,3.611943 -1.966585,3.676652 -3.824786,3.940144 z"
     inkscape:connector-curvature="0"
     id="path3115"
     style="fill:url(#linearGradient3117);fill-opacity:1;fill-rule:nonzero;stroke:none"
     sodipodi:nodetypes="csccccccc"
     inkscape:export-filename="/home/pieczar/Projects/f1lt/icons/ltdb.png"
     inkscape:export-xdpi="125.13"
     inkscape:export-ydpi="125.13" />
  <rect
     style="opacity:0.4;fill:url(#linearGradient3082);fill-opacity:1;stroke:none"
     id="rect3831"
     y="6.6101694"
     x="15.627119"
     height="84.000008"
     width="21"
     inkscape:export-filename="/home/pieczar/Projects/f1lt/icons/ltdb.png"
     inkscape:export-xdpi="125.13"
     inkscape:export-ydpi="125.13" />
  <rect
     style="opacity:0.2;fill:url(#linearGradient3079);fill-opacity:1;stroke:none"
     id="rect3841"
     y="6"
     x="60"
     height="84.000008"
     width="12"
     inkscape:export-filename="/home/pieczar/Projects/f1lt/icons/ltdb.png"
     inkscape:export-xdpi="125.13"
     inkscape:export-ydpi="125.13" />
  <rect
     style="opacity:0.1;fill:url(#linearGradient3073);fill-opacity:1;stroke:none"
     id="rect3871"
     transform="scale(1,-1)"
     y="-90.000008"
     x="51"
     height="84.000008"
     width="5"
     inkscape:export-filename="/home/pieczar/Projects/f1lt/icons/ltdb.png"
     inkscape:export-xdpi="125.13"
     inkscape:export-ydpi="125.13" />
  <rect
     style="fill:#000000;fill-opacity:1;fill-rule:nonzero;stroke:none"
     id="rect3199"
     width="80.033897"
     height="2.9049122"
     x="7.9322033"
     y="30.779661"
     rx="0"
     ry="1.3602368"
     inkscape:export-filename="/home/pieczar/Projects/f1lt/icons/ltdb.png"
     inkscape:export-xdpi="125.13"
     inkscape:export-ydpi="125.13" />
  <rect
     ry="1.3602368"
     rx="0"
     y="62.779663"
     x="7.9322033"
     height="2.9049122"
     width="80.033897"
     id="rect3969"
     style="fill:#000000;fill-opacity:1;fill-rule:nonzero;stroke:none"
     inkscape:export-filename="/home/pieczar/Projects/f1lt/icons/ltdb.png"
     inkscape:export-xdpi="125.13"
     inkscape:export-ydpi="125.13" />
  <g
     id="layer1"
     style="fill:#1a1a1a;fill-opacity:1"
     transform="translate(248.97383,90.417749)"
     inkscape:export-filename="/home/pieczar/Projects/f1lt/icons/icon3.png"
     inkscape:export-xdpi="125.13"
     inkscape:export-ydpi="125.13">
    <rect
       width="84"
       height="84"
       rx="6"
       ry="6"
       x="6"
       y="6"
       id="rect2419-3"
       style="fill:#131313;fill-opacity:1;fill-rule:nonzero;stroke:none" />
    <path
       d="M 12,90 C 8.676,90 6,87.324 6,84 L 6,82 6,14 6,12 c 0,-0.334721 0.04135,-0.6507 0.09375,-0.96875 0.0487,-0.295596 0.09704,-0.596915 0.1875,-0.875 C 6.29113,10.12587 6.302142,10.09265 6.3125,10.0625 6.411365,9.774729 6.5473802,9.515048 6.6875,9.25 6.8320918,8.976493 7.0031161,8.714385 7.1875,8.46875 7.3718839,8.223115 7.5612765,7.995278 7.78125,7.78125 8.221197,7.353194 8.72416,6.966724 9.28125,6.6875 9.559795,6.547888 9.8547231,6.440553 10.15625,6.34375 9.9000482,6.443972 9.6695391,6.580022 9.4375,6.71875 c -0.00741,0.0044 -0.023866,-0.0045 -0.03125,0 -0.031933,0.0193 -0.062293,0.04251 -0.09375,0.0625 -0.120395,0.0767 -0.2310226,0.163513 -0.34375,0.25 -0.1061728,0.0808 -0.2132809,0.161112 -0.3125,0.25 C 8.4783201,7.442683 8.3087904,7.626638 8.15625,7.8125 8.0486711,7.942755 7.9378561,8.077785 7.84375,8.21875 7.818661,8.25713 7.805304,8.30462 7.78125,8.34375 7.716487,8.446782 7.6510225,8.548267 7.59375,8.65625 7.4927417,8.850956 7.3880752,9.071951 7.3125,9.28125 7.30454,9.30306 7.288911,9.3218 7.28125,9.34375 7.2494249,9.4357 7.2454455,9.530581 7.21875,9.625 7.1884177,9.731618 7.1483606,9.828031 7.125,9.9375 7.0521214,10.279012 7,10.635705 7,11 l 0,2 0,68 0,2 c 0,2.781848 2.2181517,5 5,5 l 2,0 68,0 2,0 c 2.781848,0 5,-2.218152 5,-5 l 0,-2 0,-68 0,-2 C 89,10.635705 88.94788,10.279012 88.875,9.9375 88.83085,9.730607 88.78662,9.539842 88.71875,9.34375 88.71105,9.3218 88.69545,9.30306 88.6875,9.28125 88.62476,9.107511 88.549117,8.913801 88.46875,8.75 88.42717,8.6672 88.38971,8.580046 88.34375,8.5 88.28915,8.40279 88.216976,8.31165 88.15625,8.21875 88.06214,8.077785 87.951329,7.942755 87.84375,7.8125 87.700576,7.63805 87.540609,7.465502 87.375,7.3125 87.36383,7.3023 87.35502,7.29135 87.34375,7.28125 87.205364,7.155694 87.058659,7.046814 86.90625,6.9375 86.803679,6.86435 86.701932,6.784136 86.59375,6.71875 c -0.0074,-0.0045 -0.02384,0.0044 -0.03125,0 -0.232039,-0.138728 -0.462548,-0.274778 -0.71875,-0.375 0.301527,0.0968 0.596455,0.204138 0.875,0.34375 0.55709,0.279224 1.060053,0.665694 1.5,1.09375 0.219973,0.214028 0.409366,0.441865 0.59375,0.6875 0.184384,0.245635 0.355408,0.507743 0.5,0.78125 0.14012,0.265048 0.276135,0.524729 0.375,0.8125 0.01041,0.03078 0.02133,0.06274 0.03125,0.09375 0.09046,0.278085 0.1388,0.579404 0.1875,0.875 C 89.95865,11.3493 90,11.665279 90,12 l 0,2 0,68 0,2 c 0,3.324 -2.676,6 -6,6 l -72,0 z"
       inkscape:connector-curvature="0"
       id="path3615-9"
       style="opacity:0.2;fill:#1a1a1a;fill-opacity:1;fill-rule:nonzero;stroke:none" />
    <path
       d="M 12,6 C 8.676,6 6,8.676 6,12 l 0,2 0,68 0,2 c 0,0.334721 0.04135,0.6507 0.09375,0.96875 0.0487,0.295596 0.09704,0.596915 0.1875,0.875 0.00988,0.03038 0.020892,0.0636 0.03125,0.09375 0.098865,0.287771 0.2348802,0.547452 0.375,0.8125 0.1445918,0.273507 0.3156161,0.535615 0.5,0.78125 0.1843839,0.245635 0.3737765,0.473472 0.59375,0.6875 0.439947,0.428056 0.94291,0.814526 1.5,1.09375 0.278545,0.139612 0.5734731,0.246947 0.875,0.34375 -0.2562018,-0.100222 -0.4867109,-0.236272 -0.71875,-0.375 -0.00741,-0.0044 -0.023866,0.0045 -0.03125,0 -0.031933,-0.0193 -0.062293,-0.04251 -0.09375,-0.0625 -0.120395,-0.0767 -0.2310226,-0.163513 -0.34375,-0.25 -0.1061728,-0.0808 -0.2132809,-0.161112 -0.3125,-0.25 C 8.4783201,88.557317 8.3087904,88.373362 8.15625,88.1875 8.0486711,88.057245 7.9378561,87.922215 7.84375,87.78125 7.818661,87.74287 7.805304,87.69538 7.78125,87.65625 7.716487,87.553218 7.6510225,87.451733 7.59375,87.34375 7.4927417,87.149044 7.3880752,86.928049 7.3125,86.71875 7.30454,86.69694 7.288911,86.6782 7.28125,86.65625 7.2494249,86.5643 7.2454455,86.469419 7.21875,86.375 7.1884177,86.268382 7.1483606,86.171969 7.125,86.0625 7.0521214,85.720988 7,85.364295 7,85 L 7,83 7,15 7,13 C 7,10.218152 9.2181517,8 12,8 l 2,0 68,0 2,0 c 2.781848,0 5,2.218152 5,5 l 0,2 0,68 0,2 c 0,0.364295 -0.05212,0.720988 -0.125,1.0625 -0.04415,0.206893 -0.08838,0.397658 -0.15625,0.59375 -0.0077,0.02195 -0.0233,0.04069 -0.03125,0.0625 -0.06274,0.173739 -0.138383,0.367449 -0.21875,0.53125 -0.04158,0.0828 -0.07904,0.169954 -0.125,0.25 -0.0546,0.09721 -0.126774,0.18835 -0.1875,0.28125 -0.09411,0.140965 -0.204921,0.275995 -0.3125,0.40625 -0.143174,0.17445 -0.303141,0.346998 -0.46875,0.5 -0.01117,0.0102 -0.01998,0.02115 -0.03125,0.03125 -0.138386,0.125556 -0.285091,0.234436 -0.4375,0.34375 -0.102571,0.07315 -0.204318,0.153364 -0.3125,0.21875 -0.0074,0.0045 -0.02384,-0.0044 -0.03125,0 -0.232039,0.138728 -0.462548,0.274778 -0.71875,0.375 0.301527,-0.0968 0.596455,-0.204138 0.875,-0.34375 0.55709,-0.279224 1.060053,-0.665694 1.5,-1.09375 0.219973,-0.214028 0.409366,-0.441865 0.59375,-0.6875 0.184384,-0.245635 0.355408,-0.507743 0.5,-0.78125 0.14012,-0.265048 0.276135,-0.524729 0.375,-0.8125 0.01041,-0.03078 0.02133,-0.06274 0.03125,-0.09375 0.09046,-0.278085 0.1388,-0.579404 0.1875,-0.875 C 89.95865,84.6507 90,84.334721 90,84 l 0,-2 0,-68 0,-2 C 90,8.676 87.324,6 84,6 L 12,6 z"
       inkscape:connector-curvature="0"
       id="rect3728-43"
       style="opacity:0.3;fill:#1a1a1a;fill-opacity:1;fill-rule:nonzero;stroke:none" />
  </g>
  <g
     id="layer5-5"
     style="opacity:0.55331415"
     transform="translate(76.737538,-118.9853)"
     inkscape:export-filename="/home/pieczar/Projects/f1lt/icons/icon3.png"
     inkscape:export-xdpi="125.13"
     inkscape:export-ydpi="125.13">
    <rect
       width="66"
       height="66"
       rx="12"
       ry="12"
       x="15"
       y="15"
       clip-path="url(#clipPath3613)"
       id="rect3171"
       style="opacity:0.15;fill:url(#linearGradient136012);fill-opacity:1;fill-rule:nonzero;stroke:#ffffff;stroke-width:0.5;stroke-linecap:round;stroke-linejoin:miter;stroke-miterlimit:4;stroke-opacity:1;stroke-dasharray:none;stroke-dashoffset:0;filter:url(#filter3794)" />
  </g>
  <g
     transform="translate(181.45057,-118.79123)"
     id="layer5-1"
     style="fill:url(#linearGradient136020);fill-opacity:1;display:inline"
     inkscape:export-filename="/home/pieczar/Projects/f1lt/icons/icon3.png"
     inkscape:export-xdpi="125.13"
     inkscape:export-ydpi="125.13">
    <rect
       width="66"
       height="66"
       rx="12"
       ry="12"
       x="15"
       y="15"
       clip-path="url(#clipPath3613-9)"
       id="rect3171-0"
       style="opacity:0.15;fill:url(#linearGradient16026);fill-opacity:1;fill-rule:nonzero;stroke:#ffffff;stroke-width:0.5;stroke-linecap:round;stroke-linejoin:miter;stroke-miterlimit:4;stroke-opacity:1;stroke-dasharray:none;stroke-dashoffset:0;filter:url(#filter3794-7)" />
    <path
       d="M 12,6 C 8.676,6 6,8.676 6,12 l 0,2 0,68 0,2 c 0,0.334721 0.04135,0.6507 0.09375,0.96875 0.0487,0.295596 0.09704,0.596915 0.1875,0.875 0.00988,0.03038 0.020892,0.0636 0.03125,0.09375 0.098865,0.287771 0.2348802,0.547452 0.375,0.8125 0.1445918,0.273507 0.3156161,0.535615 0.5,0.78125 0.1843839,0.245635 0.3737765,0.473472 0.59375,0.6875 0.439947,0.428056 0.94291,0.814526 1.5,1.09375 0.278545,0.139612 0.5734731,0.246947 0.875,0.34375 -0.2562018,-0.100222 -0.4867109,-0.236272 -0.71875,-0.375 -0.00741,-0.0044 -0.023866,0.0045 -0.03125,0 -0.031933,-0.0193 -0.062293,-0.04251 -0.09375,-0.0625 -0.120395,-0.0767 -0.2310226,-0.163513 -0.34375,-0.25 -0.1061728,-0.0808 -0.2132809,-0.161112 -0.3125,-0.25 C 8.4783201,88.557317 8.3087904,88.373362 8.15625,88.1875 8.0486711,88.057245 7.9378561,87.922215 7.84375,87.78125 7.818661,87.74287 7.805304,87.69538 7.78125,87.65625 7.716487,87.553218 7.6510225,87.451733 7.59375,87.34375 7.4927417,87.149044 7.3880752,86.928049 7.3125,86.71875 7.30454,86.69694 7.288911,86.6782 7.28125,86.65625 7.2494249,86.5643 7.2454455,86.469419 7.21875,86.375 7.1884177,86.268382 7.1483606,86.171969 7.125,86.0625 7.0521214,85.720988 7,85.364295 7,85 L 7,83 7,15 7,13 C 7,10.218152 9.2181517,8 12,8 l 2,0 68,0 2,0 c 2.781848,0 5,2.218152 5,5 l 0,2 0,68 0,2 c 0,0.364295 -0.05212,0.720988 -0.125,1.0625 -0.04415,0.206893 -0.08838,0.397658 -0.15625,0.59375 -0.0077,0.02195 -0.0233,0.04069 -0.03125,0.0625 -0.06274,0.173739 -0.138383,0.367449 -0.21875,0.53125 -0.04158,0.0828 -0.07904,0.169954 -0.125,0.25 -0.0546,0.09721 -0.126774,0.18835 -0.1875,0.28125 -0.09411,0.140965 -0.204921,0.275995 -0.3125,0.40625 -0.143174,0.17445 -0.303141,0.346998 -0.46875,0.5 -0.01117,0.0102 -0.01998,0.02115 -0.03125,0.03125 -0.138386,0.125556 -0.285091,0.234436 -0.4375,0.34375 -0.102571,0.07315 -0.204318,0.153364 -0.3125,0.21875 -0.0074,0.0045 -0.02384,-0.0044 -0.03125,0 -0.232039,0.138728 -0.462548,0.274778 -0.71875,0.375 0.301527,-0.0968 0.596455,-0.204138 0.875,-0.34375 0.55709,-0.279224 1.060053,-0.665694 1.5,-1.09375 0.219973,-0.214028 0.409366,-0.441865 0.59375,-0.6875 0.184384,-0.245635 0.355408,-0.507743 0.5,-0.78125 0.14012,-0.265048 0.276135,-0.524729 0.375,-0.8125 0.01041,-0.03078 0.02133,-0.06274 0.03125,-0.09375 0.09046,-0.278085 0.1388,-0.579404 0.1875,-0.875 C 89.95865,84.6507 90,84.334721 90,84 l 0,-2 0,-68 0,-2 C 90,8.676 87.324,6 84,6 L 12,6 z"
       inkscape:connector-curvature="0"
       id="rect3728-4"
       style="opacity:0.25;fill:url(#linearGradient16028);fill-opacity:1;fill-rule:nonzero;stroke:none" />
    <path
       d="M 12,90 C 8.676,90 6,87.324 6,84 L 6,82 6,14 6,12 c 0,-0.334721 0.04135,-0.6507 0.09375,-0.96875 0.0487,-0.295596 0.09704,-0.596915 0.1875,-0.875 C 6.29113,10.12587 6.302142,10.09265 6.3125,10.0625 6.411365,9.774729 6.5473802,9.515048 6.6875,9.25 6.8320918,8.976493 7.0031161,8.714385 7.1875,8.46875 7.3718839,8.223115 7.5612765,7.995278 7.78125,7.78125 8.221197,7.353194 8.72416,6.966724 9.28125,6.6875 9.559795,6.547888 9.8547231,6.440553 10.15625,6.34375 9.9000482,6.443972 9.6695391,6.580022 9.4375,6.71875 c -0.00741,0.0044 -0.023866,-0.0045 -0.03125,0 -0.031933,0.0193 -0.062293,0.04251 -0.09375,0.0625 -0.120395,0.0767 -0.2310226,0.163513 -0.34375,0.25 -0.1061728,0.0808 -0.2132809,0.161112 -0.3125,0.25 C 8.4783201,7.442683 8.3087904,7.626638 8.15625,7.8125 8.0486711,7.942755 7.9378561,8.077785 7.84375,8.21875 7.818661,8.25713 7.805304,8.30462 7.78125,8.34375 7.716487,8.446782 7.6510225,8.548267 7.59375,8.65625 7.4927417,8.850956 7.3880752,9.071951 7.3125,9.28125 7.30454,9.30306 7.288911,9.3218 7.28125,9.34375 7.2494249,9.4357 7.2454455,9.530581 7.21875,9.625 7.1884177,9.731618 7.1483606,9.828031 7.125,9.9375 7.0521214,10.279012 7,10.635705 7,11 l 0,2 0,68 0,2 c 0,2.781848 2.2181517,5 5,5 l 2,0 68,0 2,0 c 2.781848,0 5,-2.218152 5,-5 l 0,-2 0,-68 0,-2 C 89,10.635705 88.94788,10.279012 88.875,9.9375 88.83085,9.730607 88.78662,9.539842 88.71875,9.34375 88.71105,9.3218 88.69545,9.30306 88.6875,9.28125 88.62476,9.107511 88.549117,8.913801 88.46875,8.75 88.42717,8.6672 88.38971,8.580046 88.34375,8.5 88.28915,8.40279 88.216976,8.31165 88.15625,8.21875 88.06214,8.077785 87.951329,7.942755 87.84375,7.8125 87.700576,7.63805 87.540609,7.465502 87.375,7.3125 87.36383,7.3023 87.35502,7.29135 87.34375,7.28125 87.205364,7.155694 87.058659,7.046814 86.90625,6.9375 86.803679,6.86435 86.701932,6.784136 86.59375,6.71875 c -0.0074,-0.0045 -0.02384,0.0044 -0.03125,0 -0.232039,-0.138728 -0.462548,-0.274778 -0.71875,-0.375 0.301527,0.0968 0.596455,0.204138 0.875,0.34375 0.55709,0.279224 1.060053,0.665694 1.5,1.09375 0.219973,0.214028 0.409366,0.441865 0.59375,0.6875 0.184384,0.245635 0.355408,0.507743 0.5,0.78125 0.14012,0.265048 0.276135,0.524729 0.375,0.8125 0.01041,0.03078 0.02133,0.06274 0.03125,0.09375 0.09046,0.278085 0.1388,0.579404 0.1875,0.875 C 89.95865,11.3493 90,11.665279 90,12 l 0,2 0,68 0,2 c 0,3.324 -2.676,6 -6,6 l -72,0 z"
       inkscape:connector-curvature="0"
       id="path3615-2"
       style="opacity:0.15;fill:url(#linearGradient16030);fill-opacity:1;fill-rule:nonzero;stroke:none" />
  </g>
  <g
     id="g4432"
     transform="translate(-2.440678,2.5752733)"
     inkscape:export-filename="/home/pieczar/Projects/f1lt/icons/ltdb.png"
     inkscape:export-xdpi="125.13"
     inkscape:export-ydpi="125.13">
    <path
       style="fill:#cccccc;fill-opacity:1;fill-rule:nonzero;stroke:none"
       d="m 29.132489,16.648328 0,59.065274 51.807198,-30.089854 z"
       id="path4413"
       inkscape:connector-curvature="0"
       sodipodi:nodetypes="cccc"
       inkscape:export-filename="/home/pieczar/Projects/f1lt/icons/ltdb.png"
       inkscape:export-xdpi="155.7876"
       inkscape:export-ydpi="155.7876" />
    <path
       inkscape:export-ydpi="155.7876"
       inkscape:export-xdpi="155.7876"
       inkscape:export-filename="/home/pieczar/Projects/f1lt/icons/ltdb.png"
       sodipodi:nodetypes="cccc"
       inkscape:connector-curvature="0"
       id="path4411"
       d="m 30.256717,18.622149 0,55.117632 48.930709,-28.078791 z"
       style="fill:#999999;fill-opacity:1;fill-rule:nonzero;stroke:none" />
    <path
       style="fill:#666666;fill-opacity:1;fill-rule:nonzero;stroke:none"
       d="m 31.291472,20.326813 0,51.708304 45.874288,-26.341964 z"
       id="path4409"
       inkscape:connector-curvature="0"
       sodipodi:nodetypes="cccc"
       inkscape:export-filename="/home/pieczar/Projects/f1lt/icons/ltdb.png"
       inkscape:export-xdpi="155.7876"
       inkscape:export-ydpi="155.7876" />
    <path
       inkscape:export-ydpi="155.7876"
       inkscape:export-xdpi="155.7876"
       inkscape:export-filename="/home/pieczar/Projects/f1lt/icons/ltdb.png"
       sodipodi:nodetypes="cccc"
       inkscape:connector-curvature="0"
       id="path4835"
       d="m 32.880017,22.670711 0,47.020509 42.189669,-23.953842 z"
       style="fill:#009921;fill-opacity:1;fill-rule:nonzero;stroke:#000000;stroke-width:0.73871887;stroke-miterlimit:4;stroke-opacity:1;stroke-dasharray:none" />
    <path
       inkscape:export-ydpi="155.7876"
       inkscape:export-xdpi="155.7876"
       inkscape:export-filename="/home/pieczar/Projects/f1lt/icons/ltdb.png"
       style="opacity:0.42465754;fill:url(#linearGradient4440);fill-opacity:1;fill-rule:nonzero;stroke:#000000;stroke-width:0.40326598;stroke-miterlimit:4;stroke-opacity:1;stroke-dasharray:none;filter:url(#filter4851)"
       d="m 33.809405,31.325457 0,23.923789 22.419148,-12.18759 z"
       id="path4837"
       inkscape:connector-curvature="0"
       sodipodi:nodetypes="cccc"
       transform="matrix(1.7924725,0,0,1.8720729,-26.538284,-34.126278)" />
    <path
       inkscape:export-ydpi="155.7876"
       inkscape:export-xdpi="155.7876"
       inkscape:export-filename="/home/pieczar/Projects/f1lt/icons/ltdb.png"
       sodipodi:nodetypes="cccc"
       inkscape:connector-curvature="0"
       id="path4855"
       d="m 33.809405,31.325457 0,23.923789 22.419148,-12.18759 z"
       style="fill:url(#linearGradient4442);fill-opacity:1;fill-rule:nonzero;stroke:#000000;stroke-width:0.40326598;stroke-miterlimit:4;stroke-opacity:1;stroke-dasharray:none;filter:url(#filter4873)"
       transform="matrix(1.7924725,0,0,1.8720729,-26.715542,-34.356812)" />
  </g>
</svg>
